<svg width="32" height="40" viewBox="0 0 32 40" fill="none" xmlns="http://www.w3.org/2000/svg">
<path d="M32 25.7818C32 23.8954 30.7196 22.3171 29.0233 21.9541V17.7348C29.0233 17.3504 28.8438 16.9905 28.5428 16.7715C28.2419 16.5526 27.8577 16.5024 27.515 16.6375L25.3845 17.4762C23.9854 15.9493 22.2848 14.7992 20.4212 14.0931C22.2525 12.6686 23.4419 10.3838 23.4419 7.81267C23.4419 3.50469 20.1035 0 16 0C11.8965 0 8.55814 3.50469 8.55814 7.81267C8.55814 10.3838 9.7475 12.6686 11.5788 14.0931C9.71513 14.7992 8.01459 15.9493 6.61552 17.4762L4.48499 16.6375C4.14221 16.5024 3.75806 16.5526 3.45719 16.7715C3.15624 16.9905 2.97674 17.3504 2.97674 17.7348V21.9541C1.28037 22.3171 0 23.8953 0 25.7818C0 27.6684 1.28037 29.2466 2.97674 29.6096V34.1414C2.97674 34.6299 3.26541 35.0672 3.70106 35.2387L15.608 39.9263C15.8591 40.0246 16.1408 40.0246 16.3919 39.9263L28.2989 35.2387C28.7345 35.0672 29.0232 34.6299 29.0232 34.1414V29.6096C30.7196 29.2466 32 27.6683 32 25.7818ZM10.7907 7.81267C10.7907 4.79714 13.1276 2.3438 16 2.3438C18.8724 2.3438 21.2093 4.79714 21.2093 7.81267C21.2093 10.8282 18.8724 13.2815 16 13.2815C13.1276 13.2815 10.7907 10.8282 10.7907 7.81267ZM16 15.6253C18.6153 15.6253 21.1132 16.6176 23.0623 18.3905L16 21.1708L8.93775 18.3905C10.8868 16.6176 13.3848 15.6253 16 15.6253ZM2.23256 25.7818C2.23256 24.9202 2.90024 24.2193 3.72093 24.2193H4.46512V27.3444H3.72093C2.90024 27.3444 2.23256 26.6434 2.23256 25.7818ZM5.2093 29.6489C6.05745 29.4674 6.69767 28.6782 6.69767 27.735V23.8287C6.69767 22.8854 6.05745 22.0963 5.2093 21.9148V19.4258L14.8837 23.2345V37.138L5.2093 33.3293V29.6489ZM17.1163 37.1379V23.2345L26.7907 19.4258V21.9148C25.9425 22.0963 25.3023 22.8854 25.3023 23.8287V27.735C25.3023 28.6782 25.9425 29.4674 26.7907 29.6489V33.3293L17.1163 37.1379ZM28.2791 27.3444H27.5349V24.2193H28.2791C29.0998 24.2193 29.7674 24.9202 29.7674 25.7818C29.7674 26.6434 29.0998 27.3444 28.2791 27.3444Z" fill="black"/>
</svg>
